<svg width="104" height="124" viewBox="0 0 104 124" fill="none" xmlns="http://www.w3.org/2000/svg">
<path d="M103.429 58.9316C103.429 58.3874 103.429 57.8432 103.34 57.2083C103.251 56.6641 103.251 56.1199 103.161 55.5757C103.072 54.4873 102.894 53.3989 102.805 52.3106C102.626 51.2222 102.448 50.1338 102.181 49.1361C102.091 48.5919 102.002 48.0477 101.913 47.5942C101.824 47.05 101.646 46.5965 101.557 46.0523C101.289 45.0546 101.022 44.057 100.754 43.0593C100.397 42.0616 100.13 41.1546 99.7733 40.1569C99.5949 39.7034 99.4166 39.2499 99.3275 38.7057C99.1491 38.2522 98.9708 37.7987 98.7925 37.3452C98.4358 36.4383 98.0792 35.5313 97.7226 34.715C97.5442 34.2615 97.3659 33.8987 97.0984 33.4452C96.9201 32.9917 96.6526 32.6289 96.4743 32.1754C96.0285 31.3591 95.6718 30.5428 95.226 29.8172C94.7802 29.0917 94.3344 28.2754 93.8886 27.5498C93.4428 26.8242 92.997 26.0986 92.5512 25.4637C92.1945 25.0102 91.927 24.5567 91.5704 24.1032C91.4812 24.0125 91.4812 23.9218 91.392 23.9218C91.3029 23.8311 91.2137 23.6497 91.1246 23.4683C90.8571 23.1055 90.6787 22.8334 90.4113 22.4706C83.9916 13.8542 75.5212 7.23323 65.7134 4.05877C65.5351 3.96807 65.3568 4.05877 65.2676 4.24017C65.1784 4.42157 65.2676 4.60297 65.4459 4.69367C72.9355 7.14253 79.6227 11.5868 85.1507 17.3915C86.4881 18.8427 87.8256 20.3846 89.163 22.1078C92.9078 26.9149 96.4743 33.0824 98.8816 40.5197C99.1491 41.4267 99.5058 42.4244 99.7733 43.3314C100.041 44.3291 100.219 45.3267 100.487 46.3244C100.576 46.7779 100.754 47.3221 100.843 47.8663C100.932 48.4105 101.022 48.864 101.111 49.4082C101.289 50.4059 101.467 51.4943 101.646 52.5827C101.824 53.671 101.913 54.7594 102.002 55.8478C102.091 56.392 102.091 56.9362 102.181 57.4804C102.181 58.0246 102.181 58.5688 102.27 59.113C102.27 60.2014 102.359 61.3804 102.359 62.4688C102.359 63.5572 102.27 64.7363 102.27 65.9154C102.002 70.4503 101.289 75.076 100.13 79.7016C98.9708 84.3273 97.1876 88.7715 95.0477 93.0343C93.7103 95.6646 92.1945 98.1135 90.5004 100.472C87.6472 102.921 82.2975 105.914 73.3813 105.914C71.5089 105.914 69.8149 105.732 68.2099 105.551C68.2099 105.279 68.0316 105.007 67.8533 104.825C66.605 103.737 64.1977 101.107 62.5927 95.9367C62.5927 95.846 62.5036 95.7553 62.5036 95.6646C63.1277 95.1204 63.5735 94.8483 63.6627 94.7576H63.7518C65.1784 93.9413 72.9355 88.9529 74.4513 87.9552C78.0178 85.597 79.8902 81.1528 80.8709 77.8876C81.1384 77.0713 83.0108 70.2689 81.2276 69.4526C81.0493 69.3619 80.8709 69.3619 80.6034 69.3619C79.801 69.3619 79.266 69.9968 78.8202 70.6317C78.5527 70.9945 78.1961 71.448 77.7503 71.9015C77.2153 72.4457 73.738 73.8969 64.2868 75.6202C63.5735 75.7109 62.5927 76.0737 61.5228 76.4365C61.5228 73.6248 61.4336 69.5433 61.3445 65.8247C61.2553 62.5595 61.1661 59.113 61.2553 58.5688C61.2553 58.4781 61.3445 58.3874 61.3445 58.1153C61.5228 58.1153 61.7903 58.1153 61.9686 58.1153C62.0578 58.1153 62.1469 58.1153 62.3253 58.1153C62.5036 58.1153 62.6819 58.1153 62.8602 58.206C63.1277 58.2967 63.4844 58.2967 63.841 58.2967C64.2868 58.206 64.6435 58.0246 64.8218 57.6618C64.8218 57.5711 64.911 57.4804 64.911 57.4804C65.0893 57.4804 65.1784 57.4804 65.3568 57.3897C65.6243 57.299 65.8026 57.1176 65.8917 56.9362L66.07 56.8455H66.1592L66.2484 56.7548C66.2484 56.7548 66.4267 56.8455 66.5159 56.9362C66.5159 57.0269 66.605 57.0269 66.605 57.1176C66.6942 57.299 66.7833 57.5711 66.9617 57.7525C67.2292 58.0246 67.675 57.9339 67.9425 57.9339C68.2099 57.9339 68.4774 57.9339 68.5666 58.0246C68.5666 58.0246 68.5666 58.0246 68.6558 58.1153C68.7449 58.206 68.8341 58.2967 68.9232 58.2967C69.1016 58.3874 69.1907 58.3874 69.3691 58.3874L70.974 58.2967C71.0631 58.2967 71.2414 58.206 71.4198 58.1153C71.9547 58.1153 72.4897 58.0246 73.0247 57.9339C73.1138 57.9339 73.4705 57.7525 73.5597 57.4804C73.6488 57.3897 73.5597 57.2083 73.5597 57.1176C73.5597 56.9362 73.738 56.7548 73.9163 56.5734C74.1838 56.3013 74.5404 55.9385 74.5404 55.485C74.5404 55.3943 74.5404 55.3036 74.4513 55.2129C74.0946 54.9408 73.6488 54.7594 73.2922 54.578C72.8464 54.3966 72.4006 54.3059 72.2222 53.9431C72.1331 53.8524 72.1331 53.8524 72.0439 53.7617C71.9547 53.7617 71.8656 53.7617 71.7764 53.8524C71.6873 53.9431 71.5981 53.9431 71.4198 53.9431C71.5089 53.7617 71.5089 53.4896 71.4198 53.3082C71.2414 53.0361 70.974 52.9454 70.7065 52.9454C70.6173 52.9454 70.3498 52.8547 70.3498 52.8547C70.3498 52.8547 70.3498 52.7641 70.439 52.7641C70.5282 52.6734 70.7065 52.5827 70.8848 52.492C70.974 52.492 71.0631 52.4013 71.0631 52.3106C71.0631 52.2199 71.0631 52.1292 71.0631 52.0385C70.8848 51.7664 70.7956 51.4943 70.7065 51.2222C70.7065 51.0408 70.6173 50.9501 70.439 50.9501C70.2607 50.9501 69.9932 50.8594 69.7257 50.7687C69.2799 50.5873 68.8341 50.4059 68.3883 50.5873C68.1208 50.678 67.9425 50.8594 67.8533 51.1315C67.8533 51.2222 67.7641 51.3129 67.7641 51.4036C67.5858 51.4943 67.4075 51.585 67.3183 51.7664C67.2292 51.8571 67.2292 51.9478 67.2292 52.1292C67.2292 52.2199 67.2292 52.2199 67.14 52.3106C67.0508 52.492 66.8725 52.5827 66.5159 52.5827C66.5159 52.492 66.605 52.4013 66.605 52.3106C66.605 52.1292 66.5159 52.0385 66.3375 51.9478L65.5351 51.8571C65.5351 51.7664 65.5351 51.6757 65.5351 51.585C65.4459 51.4036 65.3568 51.2222 65.3568 51.1315C65.3568 51.0408 65.4459 50.9501 65.4459 50.8594L65.7134 50.2245C65.8026 50.0431 65.8917 49.771 65.8917 49.4989C66.1592 49.5896 66.5159 49.5896 66.7833 49.5896C66.8725 49.5896 66.9617 49.5896 67.14 49.5896C67.3183 49.5896 67.4966 49.5896 67.675 49.6803C67.9425 49.771 68.2991 49.771 68.6558 49.771C69.1016 49.6803 69.4582 49.4989 69.6365 49.1361C69.6365 49.0454 69.7257 48.9547 69.7257 48.9547C69.904 48.9547 69.9932 48.9547 70.1715 48.864C70.439 48.7733 70.6173 48.5919 70.7065 48.4105L70.8848 48.3198H70.974L71.0631 48.2291C71.0631 48.2291 71.2414 48.3198 71.3306 48.4105C71.3306 48.5012 71.4198 48.5012 71.4198 48.5919C71.5089 48.7733 71.5981 49.0454 71.7764 49.2268C72.0439 49.4989 72.4897 49.4082 72.7572 49.4082C73.0247 49.4082 73.2922 49.4082 73.3813 49.4989C73.3813 49.4989 73.3813 49.4989 73.4705 49.5896C73.5597 49.6803 73.6488 49.771 73.738 49.771C73.9163 49.8617 74.0055 49.8617 74.1838 49.8617L75.7887 49.771C75.8779 49.771 76.0562 49.6803 76.2345 49.5896C76.7695 49.5896 77.3045 49.4989 77.8394 49.4082C78.0178 49.3175 78.2852 49.2268 78.3744 48.9547C78.4636 48.864 78.3744 48.6826 78.3744 48.5919C78.3744 48.4105 78.5527 48.2291 78.7311 48.0477C78.9985 47.7756 79.3552 47.4128 79.3552 46.9593C79.3552 46.8686 79.3552 46.7779 79.266 46.6872C78.9094 46.4151 78.4636 46.2337 78.1069 46.0523C77.6611 45.8709 77.2153 45.7802 77.037 45.4174C76.9478 45.3267 76.9478 45.3267 76.8586 45.236C76.7695 45.236 76.6803 45.2361 76.5912 45.3267C76.502 45.4174 76.4128 45.4174 76.2345 45.4174C76.3237 45.236 76.3237 44.9639 76.2345 44.7826C76.0562 44.5105 75.6995 44.4198 75.5212 44.4198C75.4321 44.4198 75.1646 44.3291 75.1646 44.3291C75.1646 44.3291 75.1646 44.2384 75.2537 44.2384C75.3429 44.1477 75.5212 44.057 75.6995 43.9663C75.7887 43.9663 75.8779 43.8756 75.8779 43.7849C75.8779 43.6942 75.8779 43.6035 75.8779 43.5128C75.6996 43.2407 75.6104 42.9686 75.5212 42.6965C75.5212 42.5151 75.4321 42.4244 75.2537 42.4244C75.0754 42.4244 74.8079 42.3337 74.5404 42.243C74.0946 42.0616 73.6488 41.8802 73.203 42.0616C72.9355 42.1523 72.7572 42.3337 72.668 42.6058C72.668 42.6965 72.5789 42.7872 72.5789 42.8779C72.4005 42.9686 72.2222 43.0593 72.1331 43.2407C72.0439 43.3314 72.0439 43.4221 72.0439 43.6035C72.0439 43.6942 72.0439 43.6942 71.9547 43.7849C71.8656 43.9663 71.6873 44.057 71.3306 44.057C71.3306 43.9663 71.4198 43.8756 71.4198 43.7849C71.4198 43.6035 71.3306 43.5128 71.1523 43.4221L70.1715 43.3314V43.2407C70.1715 43.15 70.0823 43.0593 70.0823 42.9686C69.8149 42.7872 69.4582 42.7872 69.1907 42.9686C69.1016 42.9686 69.1016 43.0593 69.0124 43.0593C68.9232 43.15 68.8341 43.15 68.7449 43.2407C68.5666 43.2407 68.4774 43.2407 68.2991 43.15C68.2099 43.15 68.0316 43.0593 67.8533 43.0593C67.3183 42.7872 66.6942 42.6058 66.1592 42.4244C65.0893 42.0616 64.0193 41.6988 63.5735 40.9732C63.7518 40.8825 63.9302 40.7011 64.0193 40.5197L63.7518 40.0662H63.841L63.9302 39.9755C63.9302 39.9755 64.1085 40.0662 64.1977 40.1569C64.1977 40.2476 64.2868 40.2476 64.2868 40.3383C64.376 40.5197 64.4651 40.7918 64.6435 40.9732C64.911 41.2453 65.3568 41.1546 65.6242 41.1546C65.8917 41.1546 66.1592 41.1546 66.2484 41.2453C66.2484 41.2453 66.2484 41.2453 66.3375 41.336C66.4267 41.4267 66.5159 41.5174 66.605 41.5174C66.7834 41.6081 66.8725 41.6081 67.0508 41.6081L68.6558 41.5174C68.7449 41.5174 68.9232 41.4267 69.1016 41.336C69.6365 41.336 70.1715 41.2453 70.7065 41.1546C70.8848 41.0639 71.1523 40.9732 71.2414 40.7011C71.3306 40.6104 71.2414 40.429 71.2414 40.3383C71.2414 40.1569 71.4198 39.9755 71.5981 39.7941C71.8656 39.522 72.2222 39.1592 72.2222 38.7057C72.2222 38.615 72.2222 38.5243 72.1331 38.4336C72.0439 38.3429 71.8656 38.2522 71.6873 38.1615C71.9547 38.0708 72.3114 37.9801 72.4006 37.6173C72.4006 37.5266 72.4006 37.4359 72.4006 37.3452V37.2546C72.4006 37.2546 72.4006 37.2546 72.4897 37.1639C72.9355 36.8011 73.4705 36.6197 74.0055 36.6197C74.0946 36.6197 74.1838 36.529 74.273 36.4383C74.3621 36.3476 74.3621 36.2569 74.273 36.1662C74.1838 35.8941 74.0055 35.622 74.0946 35.3499C74.0946 35.1685 74.1838 35.0778 74.273 34.8964L74.6296 33.9894C74.8079 33.6266 75.1646 32.7196 74.6296 32.0847C74.5404 31.994 74.4513 31.9033 74.4513 31.8126C74.3621 31.7219 74.273 31.6312 74.273 31.5405C74.273 31.5405 74.273 31.4498 74.3621 31.3591C74.4513 31.1777 74.4513 30.9963 74.4513 30.8149C74.4513 30.5428 74.2729 30.3614 74.0946 30.18C74.0055 30.0893 74.0055 30.0893 73.9163 29.9986C73.8271 29.8172 73.738 29.7265 73.738 29.4545C73.738 29.3638 73.6488 29.2731 73.6488 29.1824C73.4705 28.7289 73.203 28.3661 72.8464 28.2754C72.7572 28.2754 72.668 28.2754 72.5789 28.1847C72.4897 28.1847 72.4897 28.1847 72.4006 28.1847C72.4006 28.094 72.4006 28.0033 72.4006 27.9126C72.4006 27.7312 72.4897 27.6405 72.5789 27.4591L72.9355 26.5521C73.1139 26.1893 73.4705 25.2823 72.9355 24.6474C72.8464 24.5567 72.7572 24.466 72.7572 24.3753C72.668 24.2846 72.5789 24.1939 72.5789 24.1032C72.5789 24.1032 72.5789 24.0125 72.668 23.9218C72.7572 23.7404 72.7572 23.559 72.7572 23.3776C72.7572 23.1055 72.5789 22.9241 72.4006 22.7427C72.3114 22.652 72.3114 22.652 72.2222 22.5613C72.1331 22.3799 72.0439 22.2892 72.0439 22.0171C72.0439 21.9264 71.9547 21.8357 71.9547 21.745C71.7764 21.2916 71.5089 20.9288 71.1523 20.8381C71.0631 20.8381 70.974 20.8381 70.8848 20.7474C70.7956 20.7474 70.7956 20.7474 70.7065 20.7474C70.5282 20.7474 70.439 20.6567 70.2607 20.4753L69.3691 19.8404C69.2799 19.7497 69.1907 19.7497 69.1016 19.8404H67.0508C66.8725 19.8404 66.7833 19.9311 66.7833 20.1125C66.6942 20.3846 66.605 20.6567 66.5159 21.0195C66.5159 21.1102 66.4267 21.2009 66.4267 21.2009H66.3375L66.2484 21.1102C65.8917 20.9288 65.5351 21.0195 65.2676 21.2916C65.0893 21.473 65.0893 21.745 65.0001 21.9264V22.0171C65.0001 22.1985 64.9109 22.2892 64.8218 22.2892C64.6435 22.3799 64.376 22.2892 64.1977 22.1078L64.1085 22.0171C64.0193 21.9264 63.9302 21.8357 63.841 21.745C63.6627 21.6543 63.3952 21.473 63.1277 21.6544C62.9494 21.745 62.8602 21.8357 62.7711 21.9264C62.6819 22.0171 62.5927 22.1078 62.5036 22.1985C62.4144 21.9264 62.5036 21.6544 62.6819 21.473C62.9494 21.2009 63.3952 20.9288 63.841 20.7474C63.9302 20.7474 64.0193 20.6567 64.0193 20.566V20.4753H64.1977C64.376 20.4753 64.6435 20.4753 64.8218 20.3846C64.9109 20.3846 64.9109 20.2939 65.0001 20.2939C65.0001 20.2939 65.0893 20.2939 65.0893 20.2032C65.2676 20.1125 65.4459 20.2032 65.6242 20.2032C65.7134 20.2032 65.8026 20.2032 65.8917 20.2032C66.2484 20.2032 66.6942 20.0218 66.8725 19.659C66.8725 19.5683 66.8725 19.4776 66.8725 19.3869V19.2962C66.8725 19.2962 66.8725 19.2962 66.9617 19.2055C67.4075 18.8427 67.9425 18.6613 68.4774 18.6613C68.5666 18.6613 68.6557 18.5706 68.7449 18.4799C68.8341 18.3892 68.8341 18.2985 68.7449 18.2078C68.6557 17.9357 68.4774 17.6636 68.5666 17.3915C68.5666 17.2101 68.6557 17.1194 68.7449 16.938L69.1016 16.031C69.2799 15.6682 69.6365 14.7612 69.1016 14.1263C69.0124 14.0356 68.9232 13.9449 68.9232 13.8542C68.8341 13.7635 68.7449 13.6729 68.7449 13.5822C68.7449 13.5822 68.7449 13.4915 68.8341 13.4008C68.9232 13.2194 68.9232 13.038 68.9232 12.8566C68.9232 12.5845 68.7449 12.4031 68.5666 12.2217C68.4774 12.131 68.4774 12.131 68.3883 12.0403C68.2991 11.8589 68.2099 11.7682 68.2099 11.4961C68.2099 11.4054 68.1208 11.3147 68.1208 11.224C67.9425 10.7705 67.675 10.4077 67.3183 10.317C67.2292 10.317 67.14 10.317 67.0508 10.2263C66.9617 10.2263 66.9617 10.2263 66.8725 10.2263C66.6942 10.2263 66.605 10.1356 66.4267 9.9542L65.5351 9.31931C65.4459 9.22861 65.3568 9.22861 65.2676 9.31931H65.0001C65.0001 9.13791 64.9109 8.95651 64.7326 8.77511C64.6435 8.68441 64.5543 8.59372 64.5543 8.50302C64.4651 8.41232 64.376 8.32162 64.376 8.23092C64.376 8.23092 64.376 8.14022 64.4651 8.04952C64.5543 7.86813 64.5543 7.68673 64.5543 7.50533C64.5543 7.23323 64.376 7.05184 64.1977 6.87044C64.1085 6.77974 64.1085 6.77974 64.0193 6.68904C63.9302 6.50764 63.841 6.41694 63.841 6.14485C63.841 6.05415 63.7518 5.96345 63.7518 5.87275C63.5735 5.41926 63.306 5.05646 62.9494 4.96576C62.8602 4.96576 62.7711 4.96576 62.6819 4.87506C62.5927 4.87506 62.5927 4.87506 62.5036 4.87506C62.3252 4.87506 62.2361 4.78436 62.0578 4.69367L61.1661 4.05877C61.077 3.96807 60.9878 3.96807 60.8987 4.05877H59.2046C59.2937 3.87738 59.2938 3.69598 59.2938 3.51458C59.2938 3.24248 59.1154 3.06109 58.9371 2.87969C58.8479 2.78899 58.8479 2.78899 58.7588 2.69829C58.6696 2.51689 58.5805 2.4262 58.5805 2.1541C58.5805 2.0634 58.4913 1.9727 58.4913 1.882C58.313 1.42851 58.0455 1.06571 57.6888 0.975014C57.5997 0.975014 57.5105 0.975012 57.4213 0.884313C57.3322 0.884313 57.3322 0.884313 57.243 0.884313C57.0647 0.884313 56.9755 0.793614 56.7972 0.702915L55.9056 0.0680241C55.8164 -0.0226747 55.7273 -0.0226747 55.6381 0.0680241H53.5874C53.4982 0.0680241 53.3199 0.158724 53.3199 0.340122C53.2307 0.612218 53.1416 0.884315 53.0524 1.24711C53.0524 1.33781 52.9633 1.42851 52.9633 1.42851H52.8741L52.7849 1.33781C52.4283 1.15641 52.0716 1.24711 51.8041 1.51921C51.6258 1.7006 51.6258 1.9727 51.5367 2.1541V2.2448C51.5367 2.42619 51.4475 2.51689 51.3583 2.51689C51.18 2.60759 50.9125 2.51689 50.7342 2.3355L50.645 2.2448C50.5559 2.1541 50.4667 2.0634 50.3776 1.9727C50.1992 1.882 49.9317 1.70061 49.6643 1.882C49.4859 1.9727 49.3968 2.0634 49.3076 2.1541C49.1293 2.3355 49.0401 2.51689 48.8618 2.69829C48.7726 2.78899 48.6835 2.97039 48.7726 3.15178C48.8618 3.33318 48.951 3.42388 49.1293 3.51458C49.1293 3.51458 49.1293 3.60528 49.1293 3.69598C49.1293 3.78668 49.0401 3.96807 49.0401 4.05877C49.0401 4.51227 49.3968 4.78437 49.7534 5.05646C50.0209 5.23786 50.1101 5.41926 50.0209 5.41926C50.0209 5.41926 49.9317 5.50995 49.9317 5.60065C49.6643 5.87275 49.3968 6.14485 49.1293 6.14485C49.0401 6.14485 48.8618 6.14485 48.7726 6.32624C48.6835 6.41694 48.5943 6.59834 48.5943 6.68904C48.5943 6.77974 48.5052 6.87044 48.416 6.87044L48.3268 6.96114C48.2377 7.05184 48.2377 7.14253 48.1485 7.14253H48.0593C47.7919 7.23323 47.5244 7.50533 47.4352 7.77743C47.4352 7.86813 47.346 7.95882 47.346 8.04952C47.1677 8.14022 46.9894 8.23092 46.9002 8.41232C46.8111 8.50302 46.8111 8.68441 46.8111 8.77511C46.8111 8.86581 46.8111 8.95651 46.7219 8.95651C46.6328 9.13791 46.3653 9.22861 46.0086 9.31931C46.0978 9.22861 46.0978 9.13791 46.0978 9.04721C46.0978 8.86581 46.0086 8.77511 45.8303 8.68442L44.7603 8.59371V8.50302C44.7603 8.41232 44.6712 8.32162 44.6712 8.23092C44.4037 8.04952 44.0471 8.04952 43.7796 8.23092C43.6904 8.23092 43.6904 8.32162 43.6012 8.32162C43.5121 8.41232 43.4229 8.41232 43.2446 8.50302C43.0663 8.50302 42.888 8.50302 42.7096 8.41232C42.353 9.31931 42.0855 9.22861 41.818 9.22861C41.6397 9.22861 41.4614 9.31931 41.3722 9.31931C41.283 9.31931 41.1939 9.41001 41.1047 9.41001H41.0155C40.9264 9.41001 40.9264 9.41001 40.9264 9.41001C40.9264 9.22861 40.7481 9.13791 40.5697 9.22861C40.3023 9.31931 40.1239 9.41001 39.9456 9.5914C39.8564 9.6821 39.6781 9.7728 39.589 9.8635C39.2323 9.9542 38.8757 9.7728 38.4299 9.5914L38.2515 9.5007C37.6274 9.22861 36.8249 9.13791 36.4683 9.6821C36.3791 9.7728 36.3791 9.8635 36.3791 9.9542V10.0449L35.6658 11.0426C35.5767 11.1333 35.3984 11.4054 35.4875 11.6775C35.5767 12.0403 35.9333 12.2217 36.29 12.2217C36.3791 12.2217 36.4683 12.2217 36.5575 12.2217C36.6466 12.2217 36.8249 12.2217 36.9141 12.2217C37.0924 12.2217 37.2707 12.4031 37.3599 12.6752L37.4491 12.7659C37.6274 13.038 37.7166 13.3101 38.0732 13.4008C38.2515 13.4915 38.519 13.5822 38.7865 13.4915L38.6973 13.5822C38.519 13.7635 38.3407 14.0356 38.4299 14.3984V14.4891C38.4299 14.5798 38.4299 14.6705 38.4299 14.7612C38.519 14.9426 38.6082 15.0333 38.7865 15.124C38.7865 15.124 38.7865 15.2147 38.7865 15.3054C38.7865 15.3961 38.6973 15.5775 38.6973 15.6682C38.6973 16.1217 39.054 16.3938 39.4106 16.6659C39.6781 16.8473 39.7673 17.0287 39.6781 17.0287C39.6781 17.0287 39.589 17.1194 39.589 17.2101C39.3215 17.4822 39.054 17.7543 38.7865 17.7543C38.6973 17.7543 38.519 17.7543 38.4299 17.9357C38.3407 18.0264 38.2515 18.2078 38.2515 18.2985C38.2515 18.3892 38.1624 18.4799 38.0732 18.4799H37.8949C37.6274 18.8427 37.5382 19.1148 37.5382 19.4776C37.5382 19.659 37.7166 19.8404 37.8949 20.0218C38.0732 20.1125 38.3407 20.2032 38.519 20.1125H38.6082H38.6973C38.7865 20.1125 38.9648 20.1125 39.054 20.2032C39.2323 20.2032 39.4106 20.2939 39.589 20.2939C39.7673 20.2939 39.9456 20.2032 40.1239 20.1125C40.2131 20.1125 40.3023 20.0218 40.3914 20.0218C40.4806 20.0218 40.4806 20.0218 40.5697 20.0218C40.4806 20.1125 40.4806 20.2939 40.4806 20.3846C40.4806 20.6567 40.7481 20.7474 40.8372 20.8381C40.8372 20.8381 40.9264 20.8381 40.9264 20.9288C41.0156 20.9288 41.0155 21.0195 41.0155 21.1102V21.2009C41.0155 21.2916 40.9264 21.3823 40.9264 21.473H40.8372C40.0348 21.745 39.054 21.3823 38.1624 20.9288L37.8949 20.7474C36.6466 20.2032 35.1309 20.1125 34.5067 21.0195C34.3284 21.0195 34.3284 21.2009 34.3284 21.2916L34.4176 21.5636L32.7235 23.8311C32.5452 24.0125 32.2777 24.3753 32.3668 24.8288C32.456 25.373 33.1693 25.6451 33.7043 25.6451C33.8826 25.6451 34.0609 25.6451 34.2392 25.6451C34.5067 25.6451 34.7742 25.5544 35.0417 25.6451C35.4875 25.7358 35.8442 26.0079 36.2008 26.4614C36.0225 26.4614 35.755 26.3707 35.5767 26.28C35.1309 26.1893 34.6851 26.0079 34.2392 26.0986C33.8826 26.0986 33.6151 26.28 33.3476 26.3707C33.1693 26.4614 32.991 26.4614 32.8127 26.5521C32.456 26.6428 32.0102 26.5521 31.921 26.3707C31.921 26.1893 31.7427 26.0986 31.5644 26.1893C31.0294 26.28 30.6728 26.5521 30.3161 26.9149C30.0486 27.0963 29.7811 27.3684 29.4245 27.4591C28.622 27.7312 27.6413 27.3684 26.7496 26.9149L26.4822 26.7335C25.2339 26.1893 23.7181 26.0986 23.094 27.0056C23.0048 27.0963 23.0048 27.187 23.0048 27.2777L23.094 27.5498L21.3999 29.8172C21.2216 29.9986 20.9541 30.3614 21.0433 30.8149C21.1324 31.3591 21.8457 31.6312 22.3807 31.6312C22.559 31.6312 22.7373 31.6312 22.9157 31.6312C23.1832 31.6312 23.4506 31.5405 23.7181 31.6312C24.1639 31.7219 24.6098 32.0847 24.9664 32.6289L25.1447 32.901C25.4122 33.3545 25.7689 33.8987 26.3038 34.2615C26.7496 34.5336 27.2846 34.6243 27.8196 34.4429C27.9979 34.3522 28.0871 34.2615 28.2654 34.1708C28.2654 34.3522 28.1762 34.715 27.9979 34.8964C27.9087 34.9871 27.9087 35.0778 27.8196 35.1685C27.4629 35.622 27.1063 36.0755 27.2846 36.7104C27.3738 37.3453 27.9087 37.708 28.4437 37.9801C28.7112 38.1615 28.9787 38.2522 29.157 38.4336C29.2462 38.5243 29.3353 38.615 29.4245 38.7964L28.9787 38.9778C28.8004 39.1592 28.5329 39.522 28.622 39.9755C28.7112 40.5197 29.4245 40.7918 29.9595 40.7918C30.1378 40.7918 30.3161 40.7918 30.4944 40.7918C30.7619 40.7918 31.0294 40.7011 31.2969 40.7918C31.7427 40.8825 32.1885 41.2453 32.5452 41.7895L32.7235 42.0616C32.991 42.5151 33.3476 43.0593 33.8826 43.4221C34.3284 43.6942 34.8634 43.7849 35.3983 43.6035C35.5767 43.5128 35.6658 43.4221 35.8442 43.3314C35.8442 43.5128 35.8442 43.6942 35.755 43.8756C35.6658 43.7849 35.5767 43.7849 35.4875 43.8756H33.4368C33.3476 43.8756 33.1693 43.9663 33.1693 44.1477C33.0801 44.4198 32.991 44.6919 32.9018 45.0547C32.9018 45.1453 32.8127 45.236 32.8127 45.236H32.7235L32.6343 45.1453C32.2777 44.9639 31.921 45.0547 31.6535 45.3267C31.4752 45.5081 31.4752 45.7802 31.3861 45.9616V46.0523C31.3861 46.2337 31.2969 46.3244 31.2077 46.3244C31.0294 46.4151 30.7619 46.3244 30.5836 46.143L30.4944 46.0523C30.4053 45.9616 30.3161 45.8709 30.227 45.7802C29.8703 45.5081 29.5137 45.4174 29.2462 45.5081C29.0679 45.5988 28.9787 45.6895 28.8895 45.7802C28.7112 45.9616 28.622 46.143 28.4437 46.3244C28.3546 46.4151 28.2654 46.5965 28.3546 46.7779C28.4437 46.9593 28.5329 47.05 28.7112 47.1407C28.7112 47.1407 28.7112 47.2314 28.7112 47.3221C28.7112 47.4128 28.622 47.5942 28.622 47.6849C28.622 48.1384 28.9787 48.4105 29.3353 48.6826C29.6028 48.864 29.692 49.0454 29.6028 49.0454C29.6028 49.0454 29.5137 49.1361 29.5137 49.2268C29.2462 49.4989 28.9787 49.771 28.7112 49.771C28.622 49.771 28.4437 49.771 28.3546 49.9524C28.2654 50.0431 28.1762 50.2245 28.1762 50.3152C28.1762 50.4059 28.0871 50.4966 27.9979 50.4966L27.9087 50.5873C27.6413 50.9501 27.5521 51.2222 27.5521 51.585C27.5521 51.7664 27.7304 51.9478 27.9087 52.1292C28.0871 52.2199 28.3546 52.3106 28.5329 52.2199H28.622C28.622 52.2199 28.622 52.2199 28.7112 52.2199C28.8004 52.2199 28.9787 52.2199 29.0678 52.3106C29.2462 52.3106 29.4245 52.4013 29.6028 52.4013C29.7811 52.4013 29.9595 52.3106 30.1378 52.2199C30.227 52.2199 30.3161 52.1292 30.4053 52.1292C30.4944 52.1292 30.4944 52.1292 30.5836 52.1292C30.4944 52.2199 30.4944 52.4013 30.4944 52.492C30.4944 52.764 30.7619 52.8547 30.8511 52.9454C30.8511 52.9454 30.9402 52.9455 30.9402 53.0362C31.0294 53.0362 31.0294 53.1268 31.0294 53.2175V53.3082C30.9403 53.3989 30.8511 53.671 30.9402 53.8524C31.0294 54.0338 31.1186 54.1245 31.2969 54.2152C32.0994 54.6687 32.991 54.6687 33.9718 54.6687H34.4176C34.5959 54.6687 34.8634 54.6687 35.0417 54.578C35.1309 54.578 35.1309 54.4873 35.22 54.4873C35.22 54.4873 35.3092 54.4873 35.3092 54.3966C35.4875 54.3059 35.6658 54.3966 35.8442 54.3966C35.9333 54.3966 36.0225 54.3966 36.1116 54.3966C36.4683 54.3966 36.9141 54.2152 37.0924 53.8524C37.0924 53.7617 37.0924 53.671 37.0924 53.5803V53.4896C37.0924 53.4896 37.0924 53.4896 37.1816 53.3989C37.6274 53.0361 38.1624 52.8547 38.6973 52.8547C38.7865 52.8547 38.8757 52.7641 38.9648 52.6734C39.054 52.5827 39.054 52.492 38.9648 52.4013C38.9648 52.4013 38.9648 52.4013 38.9648 52.3106C39.054 52.4013 39.1431 52.5827 39.3215 52.6734C39.4998 52.7641 39.7673 52.8548 39.9456 52.7641C39.7673 52.9454 39.589 53.2175 39.6781 53.5803C39.6781 53.671 39.6781 53.671 39.6781 53.7617C39.589 53.671 39.589 53.671 39.4998 53.5803C39.3215 53.4896 39.1431 53.3989 38.8757 53.4896C38.6973 53.5803 38.6082 53.671 38.6082 53.671C38.519 53.7617 38.4299 53.9431 38.3407 54.0338C38.3407 54.1245 38.1624 54.2152 38.2515 54.4873C38.2515 54.578 38.3407 54.6687 38.4299 54.7594C38.4299 54.8501 38.4299 54.9408 38.4299 55.0315C38.4299 55.3943 38.6973 55.5757 38.9648 55.7571C39.054 55.8478 39.1432 55.9385 39.1432 55.9385L39.054 56.0292C38.8757 56.2106 38.7865 56.3013 38.519 56.392C38.4299 56.392 38.3407 56.392 38.1624 56.4827C38.0732 56.5734 38.0732 56.7548 38.0732 56.7548C38.0732 56.7548 37.984 56.8455 37.984 56.9362C37.7166 57.299 37.7166 57.5711 37.7166 57.6618C37.7166 57.8432 37.8949 58.0246 37.984 58.1153C38.1624 58.206 38.3407 58.206 38.519 58.206C38.519 58.206 38.6082 58.206 38.6082 58.1153C38.6082 58.1153 38.6973 58.1153 38.7865 58.1153C38.8757 58.1153 39.054 58.206 39.1432 58.206C39.3215 58.206 39.4106 58.1153 39.4998 58.1153C39.4998 58.1153 39.4998 58.1153 39.589 58.1153C39.589 58.206 39.589 58.206 39.589 58.2967C39.589 58.4781 39.7673 58.6595 39.8564 58.6595V58.7502C39.8564 58.8409 39.7673 59.0223 39.7673 59.2037C39.8564 59.3851 39.9456 59.4758 40.0348 59.4758C40.4806 59.7479 41.0155 59.8386 41.6397 59.8386C41.7288 59.8386 41.818 59.8386 41.9072 59.8386H42.1747C42.353 59.8386 42.4421 59.8386 42.6205 59.7479C42.6205 59.7479 42.7096 59.7479 42.7096 59.6572H42.7988C42.888 59.6572 42.9771 59.6572 43.0663 59.6572C43.1554 59.7479 43.2446 59.8386 43.2446 59.9293C43.2446 61.2897 43.1554 63.3758 43.1554 65.5526C43.0663 69.4526 42.9771 73.7155 42.9771 76.5271C41.6397 76.0737 40.1239 75.5295 39.2323 75.4388C29.8703 73.7155 26.393 72.2643 25.7689 71.7201C25.323 71.2666 24.9664 70.8131 24.6989 70.4503C24.2531 69.8154 23.8073 69.1805 22.9157 69.1805C22.7373 69.1805 22.559 69.1805 22.2915 69.2712C20.4191 70.0875 22.3807 76.9806 22.6482 77.7062C23.629 81.0621 25.5014 85.5063 29.0678 87.7738C30.5836 88.7715 32.1885 89.7692 33.7043 90.7669C35.755 92.0366 37.7166 93.3064 39.3215 94.3948C39.3215 94.3948 40.3914 95.2111 41.6397 96.753C40.0348 101.288 37.8949 103.646 36.7358 104.644C36.5574 104.825 36.4683 105.007 36.3791 105.188C34.5067 105.551 32.456 105.732 30.1378 105.732C21.2216 105.732 15.7827 102.558 12.9295 100.109C10.7897 97.1158 8.91725 93.9413 7.4015 90.5855C5.35077 86.2319 3.83502 81.6063 2.85424 76.9806C1.87346 72.355 1.33849 67.6387 1.24933 63.1037V62.6502V62.4688V62.2874V61.4711C1.24933 60.9269 1.24932 60.2921 1.33849 59.7479C1.42765 58.6595 1.33849 57.4804 1.51681 56.392C1.60597 55.3036 1.7843 54.2152 1.87346 53.1268C1.87346 52.8548 1.96262 52.5827 1.96262 52.3106L2.14095 51.4943C2.23011 50.9501 2.31927 50.4059 2.40843 49.9524C3.12173 45.6895 4.36999 41.7895 5.61826 38.0708C8.47144 30.8149 12.2162 24.8288 16.1394 20.2032C20.0625 15.5775 24.0748 12.3124 27.5521 9.9542C29.4245 8.77511 31.1186 7.77743 32.5452 6.96114C34.3284 6.05415 36.2008 5.32856 38.1624 4.69367C38.3407 4.60297 38.4299 4.42157 38.3407 4.24017C38.2515 4.05877 38.0732 3.96807 37.8949 4.05877C26.6605 7.77743 17.1202 15.8496 10.433 26.5521C8.29312 29.8172 6.33155 33.5359 4.72664 37.708C3.38921 41.4267 2.05178 45.4174 1.33849 49.771C1.24932 50.3152 1.16016 50.8594 1.071 51.4036L0.892677 52.2199C0.892677 52.492 0.803517 52.7641 0.803517 53.0362C0.714355 54.1245 0.536029 55.3036 0.446867 56.392C0.268544 57.5711 0.268543 58.6595 0.268543 59.7479C0.268543 60.2921 0.179382 60.9269 0.179382 61.4711V62.2874V62.4688V62.7409V63.1944C0.179382 67.9108 0.714355 72.6271 1.69514 77.4341C2.67592 82.2412 4.28083 86.9575 6.33155 91.4018C7.57982 94.032 8.91725 96.5716 10.5222 99.0205C19.8842 114.167 34.9525 123.963 51.9825 123.963C53.2307 123.963 54.479 123.872 55.7273 123.781C66.2484 123.146 74.3621 119.156 80.0685 114.076C80.0685 114.076 80.0685 113.986 80.1576 113.986C84.2591 110.811 87.9147 106.911 91.1246 102.558C93.1753 99.8367 94.9585 96.8437 96.5634 93.7599C98.7925 89.3157 100.576 84.7807 101.735 79.9737C102.894 75.2574 103.607 70.541 103.786 65.8247C103.786 64.6456 103.875 63.5572 103.875 62.3781C103.518 61.199 103.518 60.1107 103.429 58.9316ZM73.3813 112.716C75.4321 112.716 77.3045 112.535 78.9094 112.263C78.1069 112.897 77.3045 113.442 76.502 113.986L76.0562 114.258C75.0754 114.439 74.0946 114.621 73.1139 114.621C66.5159 114.53 61.4336 112.807 57.9563 110.993C57.8672 110.539 57.8672 109.995 57.778 109.451C57.778 109.269 57.778 109.179 57.778 108.907C61.4336 110.902 66.5159 112.716 73.3813 112.716ZM66.605 105.188C65.4459 104.916 64.2868 104.644 63.2169 104.372L62.3253 104.1C60.8095 103.555 59.5612 103.011 58.4021 102.376C58.7588 100.925 59.3829 99.5647 60.0962 98.2949L60.1854 98.2042C60.2745 98.0228 60.3637 97.8414 60.542 97.66C60.8987 97.2065 61.1662 96.753 61.5228 96.3902C63.0386 101.197 65.2676 103.918 66.605 105.188ZM59.4721 55.2129C59.5612 55.2129 59.5612 55.2129 59.6504 55.2129C59.6504 55.3036 59.5612 55.3036 59.5612 55.3943V55.2129H59.4721ZM44.4037 65.6433C44.4929 62.0153 44.582 59.8386 44.582 58.8409C44.7604 58.7502 44.9387 58.7502 45.2062 58.7502C45.2953 58.7502 45.3845 58.6595 45.4736 58.5688C45.5628 58.4781 45.5628 58.3874 45.4736 58.2967C45.3845 58.1153 45.2953 57.9339 45.2953 57.8432C45.2953 57.7525 45.3845 57.6618 45.3845 57.5711L45.652 56.9362C45.7411 56.6641 46.0086 56.0292 45.652 55.5757C45.5628 55.485 45.5628 55.485 45.4736 55.3943L45.3845 55.3036V55.2129C45.3845 55.1222 45.4736 54.9408 45.4736 54.7594V54.6687C45.7411 54.578 45.9195 54.3966 46.0086 54.2152L46.1869 54.1245H46.2761C46.4544 54.2152 46.6328 54.3966 46.8111 54.4873C46.9002 54.6687 46.9894 54.8501 47.1677 54.9408V65.0084C47.1677 65.1898 47.2569 65.2805 47.4352 65.2805C47.6135 65.2805 47.7027 65.1898 47.7027 65.0084V55.1222C47.881 55.1222 47.9702 55.1222 48.1485 55.1222C48.416 55.1222 48.6835 55.1222 48.7726 55.2129C48.7726 55.2129 48.7726 55.2129 48.8618 55.3036C48.951 55.3943 49.0401 55.485 49.1293 55.485C49.2184 55.5757 49.3076 55.5757 49.3968 55.5757V66.9131C49.3968 67.0945 49.4859 67.1852 49.6643 67.1852C49.8426 67.1852 49.9317 67.0945 49.9317 66.9131V55.485H51.0909C51.18 55.485 51.3583 55.3943 51.5367 55.3036C51.8041 55.3036 51.9825 55.3036 52.25 55.3036V61.5618C52.25 61.7432 52.3391 61.8339 52.5174 61.8339C52.6958 61.8339 52.7849 61.7432 52.7849 61.5618V55.2129C52.8741 55.2129 53.0524 55.1222 53.1416 55.1222C53.2307 55.1222 53.4091 55.0315 53.4982 54.9408C53.4982 54.9408 53.5874 54.9408 53.5874 55.0315C54.1224 55.3943 54.7465 55.3943 55.3706 55.3943V66.1875C55.3706 66.3689 55.4598 66.4596 55.6381 66.4596C55.8164 66.4596 55.9056 66.3689 55.9056 66.1875V55.2129C55.9948 55.2129 55.9948 55.2129 56.0839 55.2129C56.1731 55.7571 56.9755 57.0269 56.9755 55.1222C57.243 55.1222 57.5105 54.9408 57.5997 54.6687C57.5997 54.578 57.5997 54.4873 57.5997 54.3966C57.6888 54.3059 57.8672 54.2152 58.1346 54.1245C58.2238 54.2152 58.313 54.3059 58.4021 54.3966L58.4913 54.4873C58.5804 54.6687 58.7588 54.9408 58.9371 55.0315V65.1898C58.9371 65.3712 59.0263 65.4619 59.2046 65.4619C59.3829 65.4619 59.4721 65.3712 59.4721 65.1898V56.392C59.5612 56.5734 59.7396 56.6641 59.9179 56.7548C60.007 56.8455 60.0962 56.8455 60.1854 56.9362C60.1854 57.4804 60.1854 57.8432 60.1854 58.0246C60.0962 58.3874 60.0962 60.4735 60.2745 65.6433C60.3637 69.5433 60.4529 73.8969 60.4529 76.6179C60.1854 76.7086 59.8287 76.7992 59.5612 76.9806H59.4721V71.8108C59.4721 71.6294 59.3829 71.5387 59.2046 71.5387C59.0263 71.5387 58.9371 71.6294 58.9371 71.8108V77.162C58.8479 77.162 58.7588 77.2527 58.6696 77.2527C58.4913 77.3434 58.2238 77.4341 58.2238 77.4341L57.3322 77.7969C56.8864 77.9783 56.4406 78.1597 55.9948 78.3411V72.6271C55.9948 72.4457 55.9056 72.355 55.7273 72.355C55.5489 72.355 55.4598 72.4457 55.4598 72.6271V78.6132C54.3898 79.0667 53.4091 79.5202 52.9633 79.7923C52.8741 79.7923 52.8741 79.883 52.7849 79.883V68.1829C52.7849 68.0015 52.6958 67.9108 52.5174 67.9108C52.3391 67.9108 52.25 68.0015 52.25 68.1829V80.3365C52.1608 80.4272 52.0716 80.5179 51.8933 80.6086C51.5367 80.3365 51.18 80.1551 50.8234 79.883C50.645 79.7923 50.2884 79.6109 49.9317 79.4295V73.6248C49.9317 73.4434 49.8426 73.3527 49.6643 73.3527C49.4859 73.3527 49.3968 73.4434 49.3968 73.6248V79.1574C48.951 78.976 48.3268 78.7039 47.7027 78.4318V71.6294C47.7027 71.448 47.6135 71.3573 47.4352 71.3573C47.2569 71.3573 47.1677 71.448 47.1677 71.6294V78.1597C46.5436 77.8876 45.9195 77.7062 45.3845 77.4341L44.3145 77.0713C44.2254 74.169 44.3145 69.634 44.4037 65.6433ZM40.3023 92.9436C38.6973 91.8553 36.8249 90.5855 34.6851 89.3157C33.1693 88.4087 31.6535 87.411 30.1378 86.4133C27.0171 84.3273 25.3231 80.2458 24.3423 77.2527C23.5398 74.6225 23.2723 72.355 23.2723 71.1759C23.3615 71.2666 23.3615 71.3573 23.4507 71.448C23.7181 71.8108 24.0748 72.355 24.6989 72.8992C26.3038 74.5318 34.3284 76.2551 38.9648 77.0713C39.3215 77.162 40.3023 77.3434 42.4421 78.1597L43.0663 78.4318L44.1362 78.7946L44.582 78.976C45.4736 79.3388 46.2761 79.6109 46.9894 79.883C47.1677 79.9737 47.346 80.0644 47.5244 80.1551C48.2377 80.4272 48.7726 80.6993 49.2184 80.8807C49.4859 80.9714 49.6643 81.1528 49.7534 81.1528C50.1101 81.3342 50.3776 81.6063 50.7342 81.7877L51.6258 82.4226L51.9825 82.1505L52.5174 81.7877C52.8741 81.5156 53.2307 81.3342 53.4982 81.1528C53.6765 81.0621 54.2115 80.79 55.1031 80.4272C55.2815 80.3365 55.4598 80.2458 55.6381 80.1551C56.1731 79.883 56.7972 79.7016 57.5105 79.4295L58.1346 79.1574C58.1346 79.1574 58.313 79.0667 58.5805 78.976C58.6696 78.976 58.6696 78.976 58.7588 78.8853C58.7588 78.8853 58.7588 78.8853 58.8479 78.8853C58.9371 78.8853 58.9371 78.8853 59.0263 78.7946C59.3829 78.7039 59.9179 78.4318 59.9179 78.4318C60.007 78.4318 60.0962 78.3411 60.1854 78.3411C60.6312 78.1597 60.9878 78.069 61.3445 77.8876C62.7711 77.4341 63.841 77.0713 64.376 76.9806C69.0124 76.1644 77.037 74.4411 78.6419 72.8085C79.1769 72.2643 79.5335 71.7201 79.8902 71.3573C79.9793 71.2666 79.9793 71.1759 80.0685 71.0852C80.1576 72.2643 79.801 74.6225 78.9985 77.162C78.1069 80.2458 76.4128 84.3273 73.203 86.3226C71.5981 87.411 63.9302 92.3087 62.5927 93.0343L62.4144 93.125C62.3253 93.2157 61.7903 93.4878 61.1661 94.032C60.542 94.5762 59.6504 95.4832 58.8479 96.6623C58.7588 96.8437 58.5804 97.1158 58.4913 97.2065L58.4021 97.3879C57.4213 98.9298 56.7972 100.653 56.3514 102.648C55.9056 104.553 55.8164 108.272 55.9056 109.542C55.9056 109.723 55.9056 109.814 55.9056 109.904C53.1416 108 51.5367 106.276 51.5367 106.276C51.5367 106.276 49.7534 108.272 46.1869 110.267C46.1869 109.904 46.2761 109.451 46.2761 109.088V108.997C46.2761 108.544 46.2761 108.09 46.2761 107.728C46.2761 107.365 46.2761 107.002 46.2761 106.548C46.2761 106.186 46.2761 105.823 46.1869 105.369C46.0978 104.644 45.9195 103.646 45.7411 102.286V102.195C45.7411 102.014 45.652 101.923 45.652 101.741C45.2062 99.9275 44.4929 98.2949 43.5121 96.753C43.4229 96.5716 43.2446 96.3902 43.1554 96.2088L43.0663 96.0274C41.818 93.9413 40.3023 92.9436 40.3023 92.9436ZM42.5313 97.9321C43.4229 99.3833 44.0471 100.925 44.4037 102.648C43.4229 103.102 42.353 103.555 41.1939 104.009L40.3023 104.281C39.589 104.462 38.9648 104.734 38.1624 104.825C39.4998 103.646 41.1939 101.469 42.5313 97.9321ZM30.227 112.716C36.5575 112.716 41.4614 111.083 45.0278 109.269C45.0278 109.723 44.9387 110.267 44.9387 110.721C44.9387 110.721 44.9387 111.174 44.9387 111.265C41.0156 113.169 35.4875 114.893 28.2654 114.621H28.1762C27.1954 113.986 26.2147 113.351 25.2339 112.625C25.0556 112.535 24.8772 112.353 24.6989 112.263C26.393 112.535 28.1762 112.716 30.227 112.716Z" fill="#EBEBEB"/>
</svg>
